<?xml version="1.0" encoding="UTF-8" standalone="no"?>
<!-- Created with Inkscape (http://www.inkscape.org/) -->

<svg
   width="191.29671mm"
   height="218.98376mm"
   viewBox="0 0 191.29671 218.98376"
   version="1.1"
   id="svg1"
   xml:space="preserve"
   inkscape:version="1.3 (1:1.3+202307231459+0e150ed6c4)"
   sodipodi:docname="missing-person-avatar.svg"
   inkscape:export-filename="missing-person-avatar-1.svg"
   inkscape:export-xdpi="96"
   inkscape:export-ydpi="96"
   xmlns:inkscape="http://www.inkscape.org/namespaces/inkscape"
   xmlns:sodipodi="http://sodipodi.sourceforge.net/DTD/sodipodi-0.dtd"
   xmlns="http://www.w3.org/2000/svg"
   xmlns:svg="http://www.w3.org/2000/svg"><sodipodi:namedview
     id="namedview1"
     pagecolor="#ffffff"
     bordercolor="#000000"
     borderopacity="0.25"
     inkscape:showpageshadow="2"
     inkscape:pageopacity="0.0"
     inkscape:pagecheckerboard="0"
     inkscape:deskcolor="#d1d1d1"
     inkscape:document-units="mm"
     inkscape:zoom="0.37039777"
     inkscape:cx="-365.82294"
     inkscape:cy="426.56844"
     inkscape:window-width="2560"
     inkscape:window-height="1376"
     inkscape:window-x="0"
     inkscape:window-y="27"
     inkscape:window-maximized="1"
     inkscape:current-layer="layer1" /><defs
     id="defs1" /><g
     inkscape:label="Layer 1"
     inkscape:groupmode="layer"
     id="layer1"
     transform="translate(198.76037,-37.452754)"><path
       style="fill:#666666;fill-opacity:1;stroke:none;stroke-width:2"
       d="m 376.93384,299.29929 c 0.5599,-2.87004 1.13492,-5.73965 1.7182,-8.55172 3.77014,-18.17632 24.27891,-37.62014 40.78342,-46.55965 8.92157,-4.83229 17.50905,-9.67418 22.29093,-12.39293 2.14882,-1.22172 4.44442,-4.14495 5.13294,-6.51941 0.74079,-3.66347 0.14853,-7.47107 -1.67003,-10.73644 l -1.89572,-4.18382 c -0.68057,-1.50201 -1.3939,-2.98895 -2.13948,-4.45978 l -0.26235,-0.51753 c -0.56481,-1.11423 -1.3512,-2.10141 -2.31096,-2.90103 -1.13998,-1.09575 -1.90509,-2.52331 -2.18632,-4.07931 -0.85714,-3.48268 -1.64857,-6.98121 -2.37388,-10.49372 l -1.28688,-5.97568 c -0.23142,-1.07464 -0.1277,-2.19439 0.29716,-3.20824 0.5301,-1.77908 0.58126,-3.66654 0.14833,-5.47173 l -0.031,-0.24072 c -0.31552,-2.44884 -0.58561,-4.90331 -0.81013,-7.36216 l -0.0841,-0.92059 c -0.16832,-1.84333 -0.45777,-3.67359 -0.86649,-5.47891 -0.4525,-2.21296 -0.64984,-4.4705 -0.58814,-6.72842 l 0.002,-0.32368 c 0.0155,-2.42422 0.6354,-4.80629 1.80369,-6.93048 1.35615,-2.40655 2.93386,-4.68134 4.71262,-6.7948 2.36837,-2.82846 4.86732,-5.54498 7.48871,-8.1407 l 1.24662,-1.25381 c 2.16136,-2.17383 4.89883,-3.68486 7.89011,-4.35517 3.55001,-0.78456 7.11618,-1.49411 10.69613,-2.12819 l 1.09544,-0.19734 c 3.30483,-0.59538 6.70105,-0.44297 9.93927,0.44602 3.33232,0.91691 6.63107,1.95174 9.89002,3.10255 l 1.1503,0.40545 c 2.54138,0.89576 4.99198,2.03076 7.31883,3.38973 2.39288,1.44181 4.35798,3.49566 5.69275,5.94985 1.58003,2.80677 3.19517,5.59364 4.84503,8.35993 l 0.74862,1.25782 c 1.2648,2.12507 2.31765,4.36932 3.14336,6.70038 0.89116,3.27273 0.90797,6.72201 0.0487,10.00326 l -0.50303,2.7404 c -0.45963,2.50394 -0.80673,5.02723 -1.04026,7.56227 l -0.18045,1.9589 c -0.10781,1.17027 0.30611,2.32851 1.13121,3.16539 1.415,2.95919 1.21813,6.43653 -0.52182,9.2171 l -0.96904,4.19778 c -0.56922,2.46583 -1.20905,4.91483 -1.91869,7.34397 l -0.31128,1.06551 c -0.48332,1.65442 -1.58973,3.05675 -3.08629,3.91174 -2.07008,1.64998 -3.33833,4.1044 -3.48656,6.74744 l -0.71002,3.33237 c -0.29396,1.37971 -0.80189,2.70495 -1.50535,3.92771 -0.80765,1.97907 -0.85416,4.18705 -0.13058,6.19837 0.9831,3.16959 3.53311,5.60689 6.74388,6.44579 8.48034,3.32147 16.78733,7.06955 24.88918,11.22989 l 10.96569,5.25224 c 5.33026,2.55304 9.97486,6.34037 13.54842,11.04774 6.87265,12.90479 10.16755,27.41334 9.54292,42.02076 -14.00151,37.6546 -55.27367,36.15844 -93.55834,38.26087 l -97.17533,3.38602 c -0.26686,0.009 -0.48824,-0.20454 -0.4882,-0.47156 4e-5,-0.26983 2.80923,-18.81374 7.18614,-41.24973 z"
       id="path1"
       sodipodi:nodetypes="csccccccccccccccccccccccccccccccccccccccccsssccsccccscccssc"
       transform="translate(-568.50796,-84.584342)"
       inkscape:export-filename="path1.svg"
       inkscape:export-xdpi="96"
       inkscape:export-ydpi="96" /></g></svg>
